<?xml version="1.0" standalone="no"?>
<!DOCTYPE svg PUBLIC "-//W3C//DTD SVG 20010904//EN"
 "http://www.w3.org/TR/2001/REC-SVG-20010904/DTD/svg10.dtd">
<svg version="1.0" xmlns="http://www.w3.org/2000/svg"
 width="700.000000pt" height="700.000000pt" viewBox="0 0 700.000000 700.000000"
 preserveAspectRatio="xMidYMid meet">

<g transform="translate(0.000000,700.000000) scale(0.100000,-0.100000)"
fill="#000000" stroke="none">
<path d="M4976 6864 c-121 -152 -155 -398 -90 -650 l15 -59 622 -623 c342
-343 633 -628 647 -633 109 -44 364 -57 480 -26 104 29 250 111 250 142 0 13
-1872 1885 -1885 1885 -6 0 -23 -16 -39 -36z"/>
<path d="M4684 5787 c-94 -78 -458 -380 -809 -672 -352 -291 -655 -544 -675
-562 l-35 -32 675 -676 c371 -371 678 -675 682 -675 8 0 52 52 862 1030 286
344 525 632 532 640 12 14 -58 87 -524 553 l-537 536 -171 -142z"/>
<path d="M2335 4589 c-101 -9 -191 -32 -273 -70 -62 -28 -184 -108 -198 -130
-6 -10 2501 -2529 2518 -2529 3 0 28 28 54 62 170 225 203 541 97 928 -15 54
-27 67 -820 861 l-805 806 -81 22 c-170 46 -352 64 -492 50z"/>
<path d="M1984 2147 l-922 -922 -422 -500 c-233 -275 -432 -511 -444 -525
l-21 -25 25 21 c14 12 261 222 550 467 l525 445 898 899 897 898 -83 83 -82
82 -921 -923z"/>
</g>
</svg>
