<?xml version="1.0" encoding="utf-8"?>
<!-- Svg Vector Icons : http://www.onlinewebfonts.com/icon -->
<!DOCTYPE svg PUBLIC "-//W3C//DTD SVG 1.1//EN" "http://www.w3.org/Graphics/SVG/1.1/DTD/svg11.dtd">
<svg version="1.1" xmlns="http://www.w3.org/2000/svg" xmlns:xlink="http://www.w3.org/1999/xlink" x="0px" y="0px" viewBox="0 0 1000 1000" enable-background="new 0 0 1000 1000" xml:space="preserve">
<metadata> Svg Vector Icons : http://www.onlinewebfonts.com/icon </metadata>
<g><g transform="translate(0.000000,511.000000) scale(0.100000,-0.100000)"><path d="M2161.3,4533.8c-347.6-84.5-641.5-388-714.5-737.5c-11.5-55.7-21.1-205.5-21.1-330.4v-230.5h-230.5c-124.8,0-274.6-9.6-330.4-21.1c-359.2-74.9-668.4-384.1-743.3-743.3c-28.8-142.1-28.8-4187,0-4329.1c51.9-245.8,230.5-497.4,451.3-630c165.2-99.9,316.9-132.5,628-132.5l263.1-1.9V-3481v-860.4l860.4,860.4l858.5,858.5h2260.6c1576.8,0,2291.3,5.8,2362.4,21.1c176.7,36.5,340,126.8,478.2,265.1c213.2,213.2,286.2,420.6,286.2,802.8v236.2h236.2c382.2,0,589.6,73,802.8,286.2c134.5,136.3,209.4,265,257.4,453.3c44.2,170.9,44.2,4208.1,0,4379c-94.1,363-382.2,645.3-735.6,718.3C8975.7,4572.3,2297.7,4566.5,2161.3,4533.8z M9064.1,3917.3c96-40.3,138.3-80.7,180.5-172.9c34.6-73,36.5-178.6,36.5-2112.7c0-1934.1-1.9-2039.7-36.5-2112.7c-73-159.4-170.9-201.7-462.9-201.7h-211.3V850.1c0,1313.7-3.8,1548-28.8,1646c-94.1,363-382.2,645.3-735.6,718.3c-71.1,15.4-941.1,21.1-2932.8,21.1H2040.3v211.3c0,291.9,42.3,389.9,201.7,462.9c73,34.6,217,36.5,3414.9,36.5C8616.5,3946.1,9002.6,3942.3,9064.1,3917.3z M7738.8,2592.1c96-40.3,138.3-80.7,180.5-172.9c34.6-73,36.5-178.6,36.5-2112.7c0-1934.1-1.9-2039.7-36.5-2112.7c-42.2-92.2-84.5-132.5-180.5-172.9c-61.5-25-349.6-28.8-2439.2-28.8H2931.5l-426.4-426.4l-426.4-428.3v432.1v434.1l-526.3-7.7c-553.1-9.6-612.7-1.9-714.5,76.8c-26.9,23-67.2,76.8-86.4,119.1c-34.6,74.9-36.5,174.8-36.5,2110.8c0,1784.3,3.8,2039.7,28.8,2101.2c40.3,96,80.7,138.3,172.9,180.5c73,34.6,217,36.5,3414.9,36.5C7291.3,2620.9,7677.4,2617.1,7738.8,2592.1z"/><path d="M1548.6,1893c-103.7-63.4-151.7-149.8-151.7-272.7c0-86.4,9.6-119.1,53.8-176.7c103.7-138.3,7.7-130.6,1605.6-124.8c1427,5.8,1440.5,5.8,1494.3,46.1c188.2,140.2,188.2,374.5,0,514.7c-53.8,40.3-67.2,40.3-1498.1,46.1C1660,1929.5,1606.2,1927.5,1548.6,1893z"/><path d="M1579.4,588.9c-199.7-107.6-222.8-382.2-42.3-518.6l67.2-51.9h2752.3h2752.3l53.8,40.3c188.2,140.2,188.2,374.5,0,514.7l-53.8,40.3l-2731.1,5.8C1746.5,623.4,1644.7,623.4,1579.4,588.9z"/><path d="M1558.2-724.9c-199.7-115.2-197.8-418.7,1.9-532l73-40.4l2083.9,3.8c2082,5.8,2085.8,5.8,2139.6,46.1c188.2,140.2,188.2,374.5,0,514.7c-53.8,40.3-57.6,40.3-2141.5,44.2l-2087.7,5.8L1558.2-724.9z"/></g></g>
</svg>